<svg id="wave" style="transform:rotate(0deg); transition: 0.3s" viewBox="0 0 1440 360" version="1.1" xmlns="http://www.w3.org/2000/svg"><defs><linearGradient id="sw-gradient-0" x1="0" x2="0" y1="1" y2="0"><stop stop-color="rgba(255, 0, 0, 1)" offset="0%"></stop><stop stop-color="rgba(255, 255, 255, 1)" offset="100%"></stop></linearGradient></defs><path style="transform:translate(0, 0px); opacity:1" fill="url(#sw-gradient-0)" d="M0,180L40,198C80,216,160,252,240,228C320,204,400,120,480,102C560,84,640,132,720,180C800,228,880,276,960,276C1040,276,1120,228,1200,186C1280,144,1360,108,1440,132C1520,156,1600,240,1680,276C1760,312,1840,300,1920,246C2000,192,2080,96,2160,78C2240,60,2320,120,2400,162C2480,204,2560,228,2640,222C2720,216,2800,180,2880,168C2960,156,3040,168,3120,162C3200,156,3280,132,3360,132C3440,132,3520,156,3600,138C3680,120,3760,60,3840,66C3920,72,4000,144,4080,168C4160,192,4240,168,4320,138C4400,108,4480,72,4560,78C4640,84,4720,132,4800,168C4880,204,4960,228,5040,222C5120,216,5200,180,5280,156C5360,132,5440,120,5520,150C5600,180,5680,252,5720,288L5760,324L5760,360L5720,360C5680,360,5600,360,5520,360C5440,360,5360,360,5280,360C5200,360,5120,360,5040,360C4960,360,4880,360,4800,360C4720,360,4640,360,4560,360C4480,360,4400,360,4320,360C4240,360,4160,360,4080,360C4000,360,3920,360,3840,360C3760,360,3680,360,3600,360C3520,360,3440,360,3360,360C3280,360,3200,360,3120,360C3040,360,2960,360,2880,360C2800,360,2720,360,2640,360C2560,360,2480,360,2400,360C2320,360,2240,360,2160,360C2080,360,2000,360,1920,360C1840,360,1760,360,1680,360C1600,360,1520,360,1440,360C1360,360,1280,360,1200,360C1120,360,1040,360,960,360C880,360,800,360,720,360C640,360,560,360,480,360C400,360,320,360,240,360C160,360,80,360,40,360L0,360Z"></path></svg>


